<?xml version="1.0" encoding="utf-8"?>
<!-- Generator: Adobe Illustrator 18.1.1, SVG Export Plug-In . SVG Version: 6.00 Build 0)  -->
<svg version="1.1" id="Layer_1" xmlns="http://www.w3.org/2000/svg" xmlns:xlink="http://www.w3.org/1999/xlink" x="0px" y="0px"
	 viewBox="0 0 483.3 135" enable-background="new 0 0 483.3 135" xml:space="preserve">
<g>
	<g>
		<path fill="#0056A7" d="M29.9,59.7c5.1,0,7.8,1,10.2,1.9c0.1,0,0.1,0.1,0.2,0.1c0.1-0.3,0.2-0.7,0.3-1c0.5-1.1,1.1-2,1.8-2.7
			c0.8-0.8,1.7-1.4,2.7-1.9c1-0.4,2.1-0.6,3.3-0.6c1.2,0,2.3,0.2,3.4,0.7c1.1,0.5,2,1.1,2.8,1.8c0.8,0.8,1.4,1.7,1.8,2.7
			c0.1,0.3,0.3,0.7,0.3,1c0.1,0,0.1,0,0.2-0.1c2.4-0.9,5.1-1.9,10.2-1.9c4.2,0,6.8,0.7,8.9,1.4c-0.3-2.8-0.9-5.5-2-8
			c-1.4-3.3-3.5-6.3-6-8.8c-2.5-2.5-5.5-4.5-8.8-5.9c-3.4-1.4-7-2.2-10.8-2.2c-3.8,0-7.4,0.7-10.8,2.2c-3.3,1.4-6.3,3.4-8.8,5.9
			c-2.5,2.5-4.5,5.4-5.9,8.7c-1.1,2.5-1.7,5.2-2,8C23.1,60.4,25.7,59.7,29.9,59.7"/>
		<path fill="#F15623" d="M96.7,57.6l-7.3-1.1c-0.4-2.1-0.9-4.1-1.6-6l6.5-5.2l-6.5-11.2l-7.7,3c-1.4-1.6-2.8-3.1-4.4-4.4l3-7.7
			l-11.2-6.5L62.3,25c-1.9-0.7-4-1.2-6-1.6l-1.2-8.2h-13l-1.2,8.2c-2.1,0.4-4.1,0.9-6,1.6l-5.2-6.5L18.4,25l3,7.7
			c-1.6,1.4-3.1,2.8-4.4,4.4l-7.7-3L2.8,45.3l6.5,5.2c-0.7,2-1.2,4-1.6,6l-7.6,1.1c-0.1,1-0.1,2-0.1,3c1,0.3,1.9,0.6,2.7,0.9
			c2.3,0.9,4.3,1.6,8.5,1.6c2.3,0,4-0.2,5.4-0.6c0.5-17.4,14.7-31.4,32.3-31.4c17.6,0,31.9,14.1,32.3,31.6c1.3,0.3,2.8,0.4,4.8,0.4
			c4.2,0,6.2-0.7,8.5-1.6c0.7-0.3,1.5-0.6,2.4-0.8C96.8,59.7,96.8,58.7,96.7,57.6z"/>
		<path fill="#00ABB7" d="M94.4,66c-2.3,0.9-4.3,1.6-8.5,1.6c-4.2,0-6.2-0.7-8.5-1.6c-2.4-0.9-5.1-1.9-10.2-1.9
			c-5.1,0-7.8,1-10.2,1.9c-2.3,0.9-4.3,1.6-8.5,1.6c-4.2,0-6.2-0.7-8.5-1.6c-2.4-0.9-5.1-1.9-10.2-1.9c-5.1,0-7.8,1-10.2,1.9
			c-2.3,0.9-4.3,1.6-8.5,1.6C7,67.6,5,66.9,2.7,66c-0.8-0.3-1.7-0.6-2.7-0.9c0.1,1.8,0.2,3.5,0.5,5.3c0.2,0.1,0.3,0.1,0.5,0.2
			c2.4,0.9,5.1,1.9,10.2,1.9c5.1,0,7.8-1,10.2-1.9c2.3-0.9,4.3-1.6,8.5-1.6c4.2,0,6.2,0.7,8.5,1.6c2.4,0.9,5.1,1.9,10.2,1.9
			c5.1,0,7.8-1,10.2-1.9C61,69.7,63,69,67.2,69c4.2,0,6.2,0.7,8.5,1.6c2.4,0.9,5.1,1.9,10.2,1.9c5.1,0,7.8-1,10.2-1.9
			c0,0,0.1,0,0.1-0.1c0.2-1.7,0.4-3.5,0.5-5.3C95.9,65.5,95.1,65.7,94.4,66z"/>
		<path fill="#0093A0" d="M94.4,74.9c-2.3,0.9-4.3,1.6-8.5,1.6c-4.2,0-6.2-0.7-8.5-1.6C75,74,72.3,73,67.2,73c-5.1,0-7.8,1-10.2,1.9
			c-2.3,0.9-4.3,1.6-8.5,1.6c-4.2,0-6.2-0.7-8.5-1.6C37.7,74,35,73,29.9,73c-5.1,0-7.8,1-10.2,1.9c-2.3,0.9-4.3,1.6-8.5,1.6
			c-4.2,0-6.2-0.7-8.5-1.6c-0.5-0.2-1-0.4-1.5-0.6c0.4,1.9,0.9,3.8,1.4,5.7c2,0.7,4.6,1.3,8.6,1.3c5.1,0,7.8-1,10.2-1.9
			c2.3-0.9,4.3-1.6,8.5-1.6c4.2,0,6.2,0.7,8.5,1.6c2.4,0.9,5.1,1.9,10.2,1.9c5.1,0,7.8-1,10.2-1.9c2.3-0.9,4.3-1.6,8.5-1.6
			c4.2,0,6.2,0.7,8.5,1.6c2.4,0.9,5.1,1.9,10.2,1.9c3.8,0,6.2-0.5,8.2-1.2c0.6-1.8,1.1-3.7,1.4-5.7C95.2,74.6,94.8,74.8,94.4,74.9z"
			/>
		<path fill="#0056A7" d="M58.8,83.9c-2.4,0.9-5.1,1.9-10.2,1.9c-5.1,0-7.8-1-10.2-1.9c-2.3-0.9-4.3-1.6-8.5-1.6
			c-4.2,0-6.2,0.7-8.5,1.6c-0.2,0.1-0.4,0.1-0.6,0.2v23.1c5.6,4.4,12.1,7.6,19.1,9V94.8h8.5c3.8,0,7.5-0.7,10.8-2.2
			c3.3-1.4,6.3-3.4,8.8-6c1.3-1.3,2.4-2.6,3.4-4.1c-1.2-0.2-2.5-0.3-4.3-0.3C63,82.3,61,83,58.8,83.9z"/>
		<path fill="#F15623" d="M92.5,84.7c-1.7,0.4-3.8,0.7-6.6,0.7c-4.3,0-6.8-0.7-9-1.5c-5.6,9.8-16,16.4-28.1,16.4c-0.4,0-2.2,0-2.6,0
			c-0.4,0-0.3,0-0.7,0v16.6c1,0.1,1.9,0.1,2.9,0.1c2.3,0,4.5-0.2,6.6-0.5l1.3-8.4c2.1-0.4,4.1-0.9,6-1.6l4.9,6.2
			c4-1.9,7.7-4.4,11-7.4l-2.6-6.5c1.6-1.4,3.1-2.8,4.4-4.4l5.9,2.3C88.6,93,90.8,89,92.5,84.7L92.5,84.7z"/>
	</g>
	<g>
		<g>
			<polygon fill="#0056A7" points="243.5,59.2 235.5,42 227.5,42 219.6,59.2 211.7,42 196.9,42 215.1,76.9 223.7,76.9 231.5,59.6 
				239.3,76.9 247.9,76.9 266.2,42 251.4,42 			"/>
			<polygon fill="#0056A7" points="284.8,32 271.5,32 271.5,42 267.7,42 267.7,53.2 271.5,53.2 271.5,76.9 284.8,76.9 284.8,53.2 
				291.5,53.2 291.5,42 284.8,42 			"/>
			<path fill="#0056A7" d="M320.5,60.6c0,4.8-1.4,6.5-5.2,6.5c-3.8,0-5.2-1.8-5.2-6.5V42h-13.3v20.9c0,10,6.2,15.1,18.5,15.1
				c12.3,0,18.5-5.1,18.5-15.1V42h-13.3V60.6z"/>
			<path fill="#0056A7" d="M358.3,40.9c-11.3,0-19.4,8-19.4,18.9c0,10.2,8.3,18.2,18.9,18.2c3.1,0,6.1-0.7,8.7-2l0.4-0.2V63.7
				l-1.2,1.1c-1.4,1.3-3.5,2.1-5.5,2.1c-4.5,0-7.6-3.1-7.6-7.5c0-4.2,3.2-7.5,7.4-7.5c1.8,0,3.7,0.7,5.7,2.2l1.1,0.8V43.1l-0.4-0.2
				C364.1,41.6,361.3,40.9,358.3,40.9z"/>
			<polygon fill="#0056A7" points="417,42 398.7,42 387.4,53.1 387.4,21.3 374.1,21.3 374.1,76.9 387.4,76.9 387.4,64.3 399.3,76.9 
				418,76.9 399.5,58.2 			"/>
			<path fill="#0056A7" d="M435.7,40.9c-11.7,0-19.2,7.3-19.2,18.6c0,11.2,7.9,18.5,20.1,18.5c7.2,0,15.6-3.2,17.7-12l0.2-0.9h-12.7
				l-0.2,0.3c-1.1,1.9-2.6,2.7-5.1,2.7c-4.2,0-6.5-2-6.7-6h25v-1.9C454.8,48.3,447.5,40.9,435.7,40.9z M430.2,53.9
				c0.9-2.4,3.1-3.9,6.1-3.9c2.7,0,5,1.6,5.8,3.9H430.2z"/>
			<polygon fill="#0056A7" points="476.6,42 476.6,32 463.3,32 463.3,42 459.5,42 459.5,53.2 463.3,53.2 463.3,76.9 476.6,76.9 
				476.6,53.2 483.3,53.2 483.3,42 			"/>
			<path fill="#0056A7" d="M158,32.1c-1.2-2.7-2.8-5.1-4.9-7.1c-2.1-2-4.5-3.6-7.1-4.8c-5.5-2.4-12-2.4-17.5,0
				c-2.7,1.2-5.1,2.8-7.1,4.8c-2,2-3.6,4.4-4.8,7.1c-0.9,2.1-1.5,4.4-1.7,6.8v31.9l0.3,0.2c3.9,3.1,8.3,5.2,13,6.2l0.8,0.2V61.8
				c2.1,0.8,4.3,1.2,6.6,1.3l0.4,0c0.3,0,0.5,0,0.8,0c12.6,0,22.9-10.2,22.9-22.9C159.6,37.3,159,34.6,158,32.1z M137.3,48.8
				c-4.4,0-8.1-3.6-8.1-8.1c0-4.4,3.6-8.1,8.1-8.1c4.5,0,8.1,3.6,8.1,8.1C145.4,45.2,141.7,48.8,137.3,48.8z M135.7,62.4L135.7,62.4
				l0,0.4L135.7,62.4z"/>
			<path fill="#0056A7" d="M181.6,43.4c-2.1-0.9-4.3-1.3-6.5-1.3c-9.6,0-17.4,7.8-17.4,17.4c0,9.6,7.8,17.4,17.4,17.4
				c2.2,0,4.4-0.4,6.5-1.3v1.3h11.1V42.2h-11.1V43.4z M182.3,57.4l-0.7,0.2c0.2,0.7,0.3,1.3,0.3,1.9c0,0.6-0.1,1.2-0.3,1.9l0.7,0.2
				l-0.7-0.2c-0.9,2.9-3.5,4.9-6.5,4.9c-3.8,0-6.8-3.1-6.8-6.8c0-3.8,3.1-6.8,6.8-6.8c3,0,5.7,2,6.5,4.9L182.3,57.4L182.3,57.4
				L182.3,57.4z"/>
		</g>
		<g>
			<g>
				<rect x="129.2" y="102.6" fill="#00ABB7" width="46.4" height="1.1"/>
			</g>
			<g>
				<rect x="421.7" y="102.6" fill="#00ABB7" width="46.4" height="1.1"/>
			</g>
		</g>
		<g>
			<path fill="#00ABB7" d="M186.7,110c-1,0-1.8-0.2-2.5-0.7c-0.7-0.4-1.2-1-1.6-1.7l1.1-0.9c0.4,0.6,0.8,1.1,1.3,1.4
				c0.5,0.3,1,0.5,1.7,0.5c0.7,0,1.4-0.3,1.9-0.8c0.5-0.5,0.7-1.3,0.7-2.4v-8.9h1.5v8.8c0,0.8-0.1,1.5-0.3,2
				c-0.2,0.6-0.5,1.1-0.9,1.4C188.8,109.6,187.9,110,186.7,110z"/>
			<path fill="#00ABB7" d="M201.6,110c-1,0-1.9-0.2-2.7-0.5c-0.8-0.4-1.5-0.9-2.1-1.5c-0.6-0.6-1-1.3-1.4-2.2
				c-0.3-0.8-0.5-1.7-0.5-2.6v0c0-0.9,0.2-1.8,0.5-2.6c0.3-0.8,0.8-1.6,1.4-2.2c0.6-0.6,1.3-1.1,2.1-1.5c0.8-0.4,1.8-0.6,2.8-0.6
				c1,0,1.9,0.2,2.7,0.5c0.8,0.4,1.5,0.9,2.1,1.5c0.6,0.6,1,1.3,1.4,2.2c0.3,0.8,0.5,1.7,0.5,2.6c0,0,0,0,0,0c0,0.9-0.2,1.8-0.5,2.6
				c-0.3,0.8-0.8,1.6-1.4,2.2c-0.6,0.6-1.3,1.1-2.1,1.5C203.5,109.8,202.6,110,201.6,110z M201.6,108.6c0.8,0,1.5-0.1,2.1-0.4
				c0.6-0.3,1.2-0.7,1.6-1.2c0.5-0.5,0.8-1.1,1.1-1.7c0.3-0.7,0.4-1.4,0.4-2.1v0c0-0.8-0.1-1.5-0.4-2.1c-0.3-0.7-0.6-1.2-1.1-1.7
				c-0.5-0.5-1-0.9-1.7-1.2c-0.6-0.3-1.3-0.4-2.1-0.4c-0.8,0-1.5,0.1-2.1,0.4c-0.6,0.3-1.2,0.7-1.6,1.2c-0.5,0.5-0.8,1.1-1.1,1.7
				c-0.3,0.7-0.4,1.4-0.4,2.1v0c0,0.8,0.1,1.5,0.4,2.1c0.3,0.7,0.6,1.2,1.1,1.7c0.5,0.5,1,0.9,1.7,1.2
				C200.2,108.5,200.9,108.6,201.6,108.6z"/>
			<path fill="#00ABB7" d="M212.8,96.6h1.5v13.2h-1.5V96.6z"/>
			<path fill="#00ABB7" d="M219.3,96.6h1.4l8.3,10.6V96.6h1.5v13.2h-1.2l-8.5-10.8v10.8h-1.5V96.6z"/>
			<path fill="#00ABB7" d="M245.6,97.9h-4.4v-1.4h10.4v1.4h-4.4v11.8h-1.5V97.9z"/>
			<path fill="#00ABB7" d="M255.5,96.6h1.5v5.9h7.6v-5.9h1.5v13.2h-1.5v-5.9H257v5.9h-1.5V96.6z"/>
			<path fill="#00ABB7" d="M271,96.6h9.6v1.4h-8.1v4.5h7.2v1.4h-7.2v4.6h8.2v1.4H271V96.6z"/>
			<path fill="#00ABB7" d="M291.6,96.6h9.6v1.4h-8.1v4.5h7.2v1.4h-7.2v4.6h8.2v1.4h-9.6V96.6z"/>
			<path fill="#00ABB7" d="M304.2,96.6h1.7l4.7,11.4l4.7-11.4h1.6l-5.7,13.3h-1.3L304.2,96.6z"/>
			<path fill="#00ABB7" d="M326,110c-1,0-1.9-0.2-2.7-0.5c-0.8-0.4-1.5-0.9-2.1-1.5c-0.6-0.6-1-1.3-1.4-2.2
				c-0.3-0.8-0.5-1.7-0.5-2.6v0c0-0.9,0.2-1.8,0.5-2.6c0.3-0.8,0.8-1.6,1.4-2.2c0.6-0.6,1.3-1.1,2.1-1.5c0.8-0.4,1.7-0.6,2.8-0.6
				c1,0,1.9,0.2,2.7,0.5c0.8,0.4,1.5,0.9,2.1,1.5c0.6,0.6,1,1.3,1.4,2.2c0.3,0.8,0.5,1.7,0.5,2.6c0,0,0,0,0,0c0,0.9-0.2,1.8-0.5,2.6
				c-0.3,0.8-0.8,1.6-1.4,2.2c-0.6,0.6-1.3,1.1-2.1,1.5C327.9,109.8,327,110,326,110z M326.1,108.6c0.8,0,1.4-0.1,2.1-0.4
				c0.6-0.3,1.2-0.7,1.6-1.2c0.5-0.5,0.8-1.1,1.1-1.7c0.3-0.7,0.4-1.4,0.4-2.1v0c0-0.8-0.1-1.5-0.4-2.1c-0.3-0.7-0.6-1.2-1.1-1.7
				c-0.5-0.5-1-0.9-1.7-1.2c-0.6-0.3-1.3-0.4-2.1-0.4c-0.8,0-1.5,0.1-2.1,0.4c-0.6,0.3-1.2,0.7-1.6,1.2c-0.5,0.5-0.8,1.1-1.1,1.7
				c-0.3,0.7-0.4,1.4-0.4,2.1v0c0,0.8,0.1,1.5,0.4,2.1c0.3,0.7,0.6,1.2,1.1,1.7c0.5,0.5,1,0.9,1.7,1.2
				C324.6,108.5,325.3,108.6,326.1,108.6z"/>
			<path fill="#00ABB7" d="M337.1,96.6h1.5v11.8h7.4v1.4h-8.9V96.6z"/>
			<path fill="#00ABB7" d="M354.8,110c-0.8,0-1.6-0.1-2.2-0.4c-0.7-0.2-1.3-0.6-1.7-1.1c-0.5-0.5-0.9-1.1-1.1-1.8
				c-0.3-0.7-0.4-1.5-0.4-2.5v-7.7h1.5v7.6c0,1.4,0.4,2.5,1.1,3.3c0.7,0.8,1.7,1.2,3,1.2c1.2,0,2.2-0.4,2.9-1.1
				c0.7-0.7,1.1-1.8,1.1-3.3v-7.7h1.5v7.6c0,1-0.1,1.8-0.4,2.5c-0.3,0.7-0.6,1.3-1.1,1.8c-0.5,0.5-1.1,0.9-1.7,1.1
				C356.4,109.9,355.6,110,354.8,110z"/>
			<path fill="#00ABB7" d="M368.5,97.9H364v-1.4h10.4v1.4H370v11.8h-1.5V97.9z"/>
			<path fill="#00ABB7" d="M378.5,96.6h1.5v13.2h-1.5V96.6z"/>
			<path fill="#00ABB7" d="M391.1,110c-1,0-1.9-0.2-2.7-0.5c-0.8-0.4-1.5-0.9-2.1-1.5c-0.6-0.6-1-1.3-1.4-2.2
				c-0.3-0.8-0.5-1.7-0.5-2.6v0c0-0.9,0.2-1.8,0.5-2.6c0.3-0.8,0.8-1.6,1.4-2.2c0.6-0.6,1.3-1.1,2.1-1.5c0.8-0.4,1.7-0.6,2.8-0.6
				c1,0,1.9,0.2,2.7,0.5c0.8,0.4,1.5,0.9,2.1,1.5c0.6,0.6,1,1.3,1.4,2.2c0.3,0.8,0.5,1.7,0.5,2.6c0,0,0,0,0,0c0,0.9-0.2,1.8-0.5,2.6
				c-0.3,0.8-0.8,1.6-1.4,2.2c-0.6,0.6-1.3,1.1-2.1,1.5C393,109.8,392.1,110,391.1,110z M391.2,108.6c0.8,0,1.4-0.1,2.1-0.4
				c0.6-0.3,1.2-0.7,1.6-1.2c0.5-0.5,0.8-1.1,1.1-1.7c0.3-0.7,0.4-1.4,0.4-2.1v0c0-0.8-0.1-1.5-0.4-2.1c-0.3-0.7-0.6-1.2-1.1-1.7
				c-0.5-0.5-1-0.9-1.7-1.2c-0.6-0.3-1.3-0.4-2.1-0.4c-0.8,0-1.5,0.1-2.1,0.4c-0.6,0.3-1.2,0.7-1.6,1.2c-0.5,0.5-0.8,1.1-1.1,1.7
				c-0.3,0.7-0.4,1.4-0.4,2.1v0c0,0.8,0.1,1.5,0.4,2.1c0.3,0.7,0.6,1.2,1.1,1.7c0.5,0.5,1,0.9,1.7,1.2
				C389.7,108.5,390.4,108.6,391.2,108.6z"/>
			<path fill="#00ABB7" d="M402.2,96.6h1.4l8.3,10.6V96.6h1.5v13.2h-1.2l-8.5-10.8v10.8h-1.5V96.6z"/>
		</g>
	</g>
</g>
</svg>
